HIERARCHY
ROOT root
{
	OFFSET	0	13.1	24.9
	CHANNELS 6  Xposition Yposition Zposition Xrotation Yrotation Zrotation
	JOINT spine_1
	{
		OFFSET	0	9.99999	0
		CHANNELS 3  Xrotation Yrotation Zrotation
		JOINT spine_2
		{
			OFFSET	0	112	-10
			CHANNELS 3  Xrotation Yrotation Zrotation
			JOINT spine_3
			{
				OFFSET	0	206.5	19.3
				CHANNELS 3  Xrotation Yrotation Zrotation
				JOINT spine_4
				{
					OFFSET	0	110.4	14.6
					CHANNELS 3  Xrotation Yrotation Zrotation
					JOINT neck_1
					{
						OFFSET	0	71.8	-50.3
						CHANNELS 3  Xrotation Yrotation Zrotation
						JOINT neck_2
						{
							OFFSET	0	86.2	-25.8
							CHANNELS 3  Xrotation Yrotation Zrotation
							JOINT head_ee
							{
								OFFSET	0	179.8	-8.7
								CHANNELS 3  Xrotation Yrotation Zrotation
								End Site
								{
									OFFSET	1	0	0
								}
							}
						}
					}
					JOINT left_clavicle
					{
						OFFSET	-43.2	22.4	-70.8
						CHANNELS 3  Xrotation Yrotation Zrotation
						JOINT left_shoulder
						{
							OFFSET	-93.9	-5.79999	48.7
							CHANNELS 3  Xrotation Yrotation Zrotation
							JOINT left_elbow
							{
								OFFSET	-291.4	-30.8	15.2
								CHANNELS 3  Xrotation Yrotation Zrotation
								JOINT left_lowarm_twist
								{
									OFFSET	-110.7	-3.89999	13.6
									CHANNELS 3  Xrotation Yrotation Zrotation
									JOINT left_hand
									{
										OFFSET	-110.7	-3.89999	13.6
										CHANNELS 3  Xrotation Yrotation Zrotation
										JOINT left_ee
										{
											OFFSET	-80.8	-5.10001	12.1
											CHANNELS 3  Xrotation Yrotation Zrotation
											End Site
											{
												OFFSET	1	0	0
											}
										}
									}
								}
							}
						}
					}
					JOINT right_clavicle
					{
						OFFSET	43.2	22.4	-70.8
						CHANNELS 3  Xrotation Yrotation Zrotation
						JOINT right_shoulder
						{
							OFFSET	93.9	-5.79999	48.7
							CHANNELS 3  Xrotation Yrotation Zrotation
							JOINT right_elbow
							{
								OFFSET	291.4	-30.8	15.2
								CHANNELS 3  Xrotation Yrotation Zrotation
								JOINT right_lowarm_twist
								{
									OFFSET	110.7	-3.89999	13.6
									CHANNELS 3  Xrotation Yrotation Zrotation
									JOINT right_hand
									{
										OFFSET	110.7	-3.89999	13.6
										CHANNELS 3  Xrotation Yrotation Zrotation
										JOINT right_ee
										{
											OFFSET	80.8	-5.10001	12.1
											CHANNELS 3  Xrotation Yrotation Zrotation
											End Site
											{
												OFFSET	1	0	0
											}
										}
									}
								}
							}
						}
					}
				}
			}
		}
	}
	JOINT left_hip
	{
		OFFSET	-82.8	-127.5	0.300001
		CHANNELS 3  Xrotation Yrotation Zrotation
		JOINT left_knee
		{
			OFFSET	-28.2	-396.7	2.2
			CHANNELS 3  Xrotation Yrotation Zrotation
			JOINT left_ankle
			{
				OFFSET	-11.7	-411.3	35.4
				CHANNELS 3  Xrotation Yrotation Zrotation
				JOINT left_toes
				{
					OFFSET	0	-60	-88.6
					CHANNELS 3  Xrotation Yrotation Zrotation
					JOINT left_foot_ee
					{
						OFFSET	-22.5	-16.5	-42.2
						CHANNELS 3  Xrotation Yrotation Zrotation
						End Site
						{
							OFFSET	1	0	0
						}
					}
				}
			}
		}
	}
	JOINT right_hip
	{
		OFFSET	82.8	-127.5	0.300001
		CHANNELS 3  Xrotation Yrotation Zrotation
		JOINT right_knee
		{
			OFFSET	28.2	-396.7	2.2
			CHANNELS 3  Xrotation Yrotation Zrotation
			JOINT right_ankle
			{
				OFFSET	11.7	-411.3	35.4
				CHANNELS 3  Xrotation Yrotation Zrotation
				JOINT right_toes
				{
					OFFSET	0	-60	-88.6
					CHANNELS 3  Xrotation Yrotation Zrotation
					JOINT right_foot_ee
					{
						OFFSET	22.5	-16.5	-42.2
						CHANNELS 3  Xrotation Yrotation Zrotation
						End Site
						{
							OFFSET	1	0	0
						}
					}
				}
			}
		}
	}
}
MOTION
Frames: 16
Frame Time: 0.02
391.555 721.904 -1204.45 170.523135912 -53.2237745279 172.835480606 -4.08684 0.112547 0.384668 -4.08676 0.087842 0.39105 -4.08601 -0.0248754 0.400022 -4.08623 0.0386122 0.39893 -8.07703 14.0998 5.64624 -8.06375 22.4005 8.6818 -0.0 0.0 -0.0 7.25242 11.8251 13.7386 -5.28676 -10.7525 58.4649 1.98998 -44.5847 0.815908 -34.6786 -2.40383 3.65288 -3.22448 9.26542 -17.1712 -0.0 0.0 -0.0 11.5167 27.6933 -22.0833 -13.9798 13.2804 -58.5612 0.357839 10.0522 -0.0314712 -2.69627 0.10277 -0.328918 -1.4284 -11.5056 4.3216 0.0 0.0 0.0 1.09707 51.4797 -3.82437 -17.5751 0.316622 2.66792 24.6793 -17.6264 -3.6123 -9.91148 0.0 0.0 -0.0 0.0 -0.0 4.32603 -18.4585 8.64483 -10.9412 -0.293608 -1.65089 9.74553 30.0436 1.75744 -0.803562 0.0 0.0 0.0 0.0 0.0 
465.403303398 704.236 -1250.1324133 68.2188977058 -80.6853954538 64.0572250723 -3.95902 0.42344 1.35029 -3.95807 0.336668 1.37449 -3.94812 -0.0572052 1.41396 -3.95088 0.166798 1.40525 -8.78523 21.515 8.09079 -8.88655 34.8952 12.9974 -0.0 0.0 -0.0 6.0894 13.4865 11.6643 -21.5154 -19.6685 60.3563 2.06538 -45.6496 0.869335 -33.6289 -2.30048 3.56656 -2.90341 23.1566 -7.50226 -0.0 0.0 -0.0 14.1968 27.075 -28.3259 -5.38377 24.7937 -54.3981 0.54134 15.0116 -0.0713252 0.357763 -0.0124682 0.0439901 1.97118 -22.8039 -21.0243 0.0 0.0 0.0 -14.668 52.0984 6.99396 -16.0346 0.321779 2.43162 24.4588 -15.3978 -3.5257 -11.7954 0.0 0.0 -0.0 0.0 -0.0 1.8125 1.45547 12.4316 -28.5764 -0.0959545 -4.33913 16.7264 6.59858 2.38763 31.7367 -0.0 -0.0 0.0 0.0 0.0 
471.055179218 704.051 -1260.37574724 49.1823250888 -78.4584457648 44.3292283734 -3.82045 0.535041 1.17353 -3.8198 0.459288 1.20519 -3.80862 0.110674 1.28497 -3.81079 0.312207 1.25138 -10.2071 21.6444 8.58649 -10.4919 35.2186 13.9739 -0.0 0.0 -0.0 5.76995 14.0083 11.1118 -23.5947 -17.7208 62.3949 1.83251 -42.2281 0.707673 -33.376 -2.27582 3.54549 -2.99269 24.4004 -7.33108 -0.0 0.0 -0.0 14.2148 26.4639 -28.4481 -3.69146 25.5272 -54.2156 0.544836 15.1042 -0.0722335 3.82103 -0.118869 0.473495 2.40389 -19.3782 -22.8815 0.0 0.0 0.0 -17.0089 47.4062 8.39183 -13.8827 0.318347 2.10149 24.0605 -13.8219 -3.43933 -11.8603 0.0 0.0 -0.0 0.0 -0.0 1.67949 3.98675 12.7751 -29.5502 -0.0610307 -4.4845 12.1474 3.90326 1.74937 29.7086 -0.0 -0.0 0.0 0.0 0.0 
472.19838394 704.051 -1258.71428224 53.8975131638 -79.1985024099 49.1352816858 -3.82045 0.535041 1.17353 -3.8198 0.459288 1.20519 -3.80862 0.110674 1.28497 -3.81079 0.312207 1.25138 -10.2071 21.6444 8.58649 -10.4919 35.2186 13.9739 -0.0 0.0 -0.0 5.76995 14.0083 11.1118 -23.5947 -17.7208 62.3949 1.83251 -42.2281 0.707673 -33.376 -2.27582 3.54549 -2.99269 24.4004 -7.33108 -0.0 0.0 -0.0 14.2148 26.4639 -28.4481 -3.69146 25.5272 -54.2156 0.544836 15.1042 -0.0722335 3.82103 -0.118869 0.473495 2.40389 -19.3782 -22.8815 0.0 0.0 0.0 -17.0089 47.4062 8.39183 -13.8827 0.318347 2.10149 24.0605 -13.8219 -3.43933 -11.8603 0.0 0.0 -0.0 0.0 -0.0 1.67949 3.98675 12.7751 -29.5502 -0.0610307 -4.4845 12.1474 3.90326 1.74937 29.7086 -0.0 -0.0 0.0 0.0 0.0 
473.106750552 704.051 -1257.33931538 58.2344254233 -79.741170506 53.5463615714 -3.82045 0.535041 1.17353 -3.8198 0.459288 1.20519 -3.80862 0.110674 1.28497 -3.81079 0.312207 1.25138 -10.2071 21.6444 8.58649 -10.4919 35.2186 13.9739 -0.0 0.0 -0.0 5.76995 14.0083 11.1118 -23.5947 -17.7208 62.3949 1.83251 -42.2281 0.707673 -33.376 -2.27582 3.54549 -2.99269 24.4004 -7.33108 -0.0 0.0 -0.0 14.2148 26.4639 -28.4481 -3.69146 25.5272 -54.2156 0.544836 15.1042 -0.0722335 3.82103 -0.118869 0.473495 2.40389 -19.3782 -22.8815 0.0 0.0 0.0 -17.0089 47.4062 8.39183 -13.8827 0.318347 2.10149 24.0605 -13.8219 -3.43933 -11.8603 0.0 0.0 -0.0 0.0 -0.0 1.67949 3.98675 12.7751 -29.5502 -0.0610307 -4.4845 12.1474 3.90326 1.74937 29.7086 -0.0 -0.0 0.0 0.0 0.0 
473.236773979 704.051 -1257.13828617 58.9022011923 -79.8147655796 54.2249072128 -3.82045 0.535041 1.17353 -3.8198 0.459288 1.20519 -3.80862 0.110674 1.28497 -3.81079 0.312207 1.25138 -10.2071 21.6444 8.58649 -10.4919 35.2186 13.9739 -0.0 0.0 -0.0 5.76995 14.0083 11.1118 -23.5947 -17.7208 62.3949 1.83251 -42.2281 0.707673 -33.376 -2.27582 3.54549 -2.99269 24.4004 -7.33108 -0.0 0.0 -0.0 14.2148 26.4639 -28.4481 -3.69146 25.5272 -54.2156 0.544836 15.1042 -0.0722335 3.82103 -0.118869 0.473495 2.40389 -19.3782 -22.8815 0.0 0.0 0.0 -17.0089 47.4062 8.39183 -13.8827 0.318347 2.10149 24.0605 -13.8219 -3.43933 -11.8603 0.0 0.0 -0.0 0.0 -0.0 1.67949 3.98675 12.7751 -29.5502 -0.0610307 -4.4845 12.1474 3.90326 1.74937 29.7086 -0.0 -0.0 0.0 0.0 0.0 
473.704793691 704.051 -1256.40554924 61.4087628026 -80.0698762483 56.7705706641 -3.82045 0.535041 1.17353 -3.8198 0.459288 1.20519 -3.80862 0.110674 1.28497 -3.81079 0.312207 1.25138 -10.2071 21.6444 8.58649 -10.4919 35.2186 13.9739 -0.0 0.0 -0.0 5.76995 14.0083 11.1118 -23.5947 -17.7208 62.3949 1.83251 -42.2281 0.707673 -33.376 -2.27582 3.54549 -2.99269 24.4004 -7.33108 -0.0 0.0 -0.0 14.2148 26.4639 -28.4481 -3.69146 25.5272 -54.2156 0.544836 15.1042 -0.0722335 3.82103 -0.118869 0.473495 2.40389 -19.3782 -22.8815 0.0 0.0 0.0 -17.0089 47.4062 8.39183 -13.8827 0.318347 2.10149 24.0605 -13.8219 -3.43933 -11.8603 0.0 0.0 -0.0 0.0 -0.0 1.67949 3.98675 12.7751 -29.5502 -0.0610307 -4.4845 12.1474 3.90326 1.74937 29.7086 -0.0 -0.0 0.0 0.0 0.0 
473.510333099 704.051 -1256.71175539 60.3474843198 -79.9658131978 55.6929807745 -3.82045 0.535041 1.17353 -3.8198 0.459288 1.20519 -3.80862 0.110674 1.28497 -3.81079 0.312207 1.25138 -10.2071 21.6444 8.58649 -10.4919 35.2186 13.9739 -0.0 0.0 -0.0 5.76995 14.0083 11.1118 -23.5947 -17.7208 62.3949 1.83251 -42.2281 0.707673 -33.376 -2.27582 3.54549 -2.99269 24.4004 -7.33108 -0.0 0.0 -0.0 14.2148 26.4639 -28.4481 -3.69146 25.5272 -54.2156 0.544836 15.1042 -0.0722335 3.82103 -0.118869 0.473495 2.40389 -19.3782 -22.8815 0.0 0.0 0.0 -17.0089 47.4062 8.39183 -13.8827 0.318347 2.10149 24.0605 -13.8219 -3.43933 -11.8603 0.0 0.0 -0.0 0.0 -0.0 1.67949 3.98675 12.7751 -29.5502 -0.0610307 -4.4845 12.1474 3.90326 1.74937 29.7086 -0.0 -0.0 0.0 0.0 0.0 
473.493353638 704.051 -1256.73837254 60.2561655072 -79.9565931055 55.6002421289 -3.82045 0.535041 1.17353 -3.8198 0.459288 1.20519 -3.80862 0.110674 1.28497 -3.81079 0.312207 1.25138 -10.2071 21.6444 8.58649 -10.4919 35.2186 13.9739 -0.0 0.0 -0.0 5.76995 14.0083 11.1118 -23.5947 -17.7208 62.3949 1.83251 -42.2281 0.707673 -33.376 -2.27582 3.54549 -2.99269 24.4004 -7.33108 -0.0 0.0 -0.0 14.2148 26.4639 -28.4481 -3.69146 25.5272 -54.2156 0.544836 15.1042 -0.0722335 3.82103 -0.118869 0.473495 2.40389 -19.3782 -22.8815 0.0 0.0 0.0 -17.0089 47.4062 8.39183 -13.8827 0.318347 2.10149 24.0605 -13.8219 -3.43933 -11.8603 0.0 0.0 -0.0 0.0 -0.0 1.67949 3.98675 12.7751 -29.5502 -0.0610307 -4.4845 12.1474 3.90326 1.74937 29.7086 -0.0 -0.0 0.0 0.0 0.0 
473.381066979 704.051 -1256.91391582 59.6576614072 -79.8950954813 54.9923661661 -3.82045 0.535041 1.17353 -3.8198 0.459288 1.20519 -3.80862 0.110674 1.28497 -3.81079 0.312207 1.25138 -10.2071 21.6444 8.58649 -10.4919 35.2186 13.9739 -0.0 0.0 -0.0 5.76995 14.0083 11.1118 -23.5947 -17.7208 62.3949 1.83251 -42.2281 0.707673 -33.376 -2.27582 3.54549 -2.99269 24.4004 -7.33108 -0.0 0.0 -0.0 14.2148 26.4639 -28.4481 -3.69146 25.5272 -54.2156 0.544836 15.1042 -0.0722335 3.82103 -0.118869 0.473495 2.40389 -19.3782 -22.8815 0.0 0.0 0.0 -17.0089 47.4062 8.39183 -13.8827 0.318347 2.10149 24.0605 -13.8219 -3.43933 -11.8603 0.0 0.0 -0.0 0.0 -0.0 1.67949 3.98675 12.7751 -29.5502 -0.0610307 -4.4845 12.1474 3.90326 1.74937 29.7086 -0.0 -0.0 0.0 0.0 0.0 
473.036689116 704.051 -1257.44718897 57.8796413549 -79.701055189 53.185790709 -3.82045 0.535041 1.17353 -3.8198 0.459288 1.20519 -3.80862 0.110674 1.28497 -3.81079 0.312207 1.25138 -10.2071 21.6444 8.58649 -10.4919 35.2186 13.9739 -0.0 0.0 -0.0 5.76995 14.0083 11.1118 -23.5947 -17.7208 62.3949 1.83251 -42.2281 0.707673 -33.376 -2.27582 3.54549 -2.99269 24.4004 -7.33108 -0.0 0.0 -0.0 14.2148 26.4639 -28.4481 -3.69146 25.5272 -54.2156 0.544836 15.1042 -0.0722335 3.82103 -0.118869 0.473495 2.40389 -19.3782 -22.8815 0.0 0.0 0.0 -17.0089 47.4062 8.39183 -13.8827 0.318347 2.10149 24.0605 -13.8219 -3.43933 -11.8603 0.0 0.0 -0.0 0.0 -0.0 1.67949 3.98675 12.7751 -29.5502 -0.0610307 -4.4845 12.1474 3.90326 1.74937 29.7086 -0.0 -0.0 0.0 0.0 0.0 
473.163075464 704.051 -1257.25236471 58.5222008664 -79.7731889629 53.838797539 -3.82045 0.535041 1.17353 -3.8198 0.459288 1.20519 -3.80862 0.110674 1.28497 -3.81079 0.312207 1.25138 -10.2071 21.6444 8.58649 -10.4919 35.2186 13.9739 -0.0 0.0 -0.0 5.76995 14.0083 11.1118 -23.5947 -17.7208 62.3949 1.83251 -42.2281 0.707673 -33.376 -2.27582 3.54549 -2.99269 24.4004 -7.33108 -0.0 0.0 -0.0 14.2148 26.4639 -28.4481 -3.69146 25.5272 -54.2156 0.544836 15.1042 -0.0722335 3.82103 -0.118869 0.473495 2.40389 -19.3782 -22.8815 0.0 0.0 0.0 -17.0089 47.4062 8.39183 -13.8827 0.318347 2.10149 24.0605 -13.8219 -3.43933 -11.8603 0.0 0.0 -0.0 0.0 -0.0 1.67949 3.98675 12.7751 -29.5502 -0.0610307 -4.4845 12.1474 3.90326 1.74937 29.7086 -0.0 -0.0 0.0 0.0 0.0 
473.095565909 704.051 -1257.35655736 58.1775520423 -79.7347877674 53.4885636165 -3.82045 0.535041 1.17353 -3.8198 0.459288 1.20519 -3.80862 0.110674 1.28497 -3.81079 0.312207 1.25138 -10.2071 21.6444 8.58649 -10.4919 35.2186 13.9739 -0.0 0.0 -0.0 5.76995 14.0083 11.1118 -23.5947 -17.7208 62.3949 1.83251 -42.2281 0.707673 -33.376 -2.27582 3.54549 -2.99269 24.4004 -7.33108 -0.0 0.0 -0.0 14.2148 26.4639 -28.4481 -3.69146 25.5272 -54.2156 0.544836 15.1042 -0.0722335 3.82103 -0.118869 0.473495 2.40389 -19.3782 -22.8815 0.0 0.0 0.0 -17.0089 47.4062 8.39183 -13.8827 0.318347 2.10149 24.0605 -13.8219 -3.43933 -11.8603 0.0 0.0 -0.0 0.0 -0.0 1.67949 3.98675 12.7751 -29.5502 -0.0610307 -4.4845 12.1474 3.90326 1.74937 29.7086 -0.0 -0.0 0.0 0.0 0.0 
472.675010506 704.051 -1257.99915121 56.1030961516 -79.4891224229 51.379551534 -3.82045 0.535041 1.17353 -3.8198 0.459288 1.20519 -3.80862 0.110674 1.28497 -3.81079 0.312207 1.25138 -10.2071 21.6444 8.58649 -10.4919 35.2186 13.9739 -0.0 0.0 -0.0 5.76995 14.0083 11.1118 -23.5947 -17.7208 62.3949 1.83251 -42.2281 0.707673 -33.376 -2.27582 3.54549 -2.99269 24.4004 -7.33108 -0.0 0.0 -0.0 14.2148 26.4639 -28.4481 -3.69146 25.5272 -54.2156 0.544836 15.1042 -0.0722335 3.82103 -0.118869 0.473495 2.40389 -19.3782 -22.8815 0.0 0.0 0.0 -17.0089 47.4062 8.39183 -13.8827 0.318347 2.10149 24.0605 -13.8219 -3.43933 -11.8603 0.0 0.0 -0.0 0.0 -0.0 1.67949 3.98675 12.7751 -29.5502 -0.0610307 -4.4845 12.1474 3.90326 1.74937 29.7086 -0.0 -0.0 0.0 0.0 0.0 
464.376747755 707.789 -1277.79110889 30.538398924 -69.8806179267 24.4422481789 -3.97353 0.595724 1.5053 -3.9724 0.498743 1.54015 -3.95653 0.0524639 1.61802 -3.96005 0.307309 1.58944 -11.0964 19.2617 8.5458 -11.351 30.9339 13.5029 -0.0 0.0 -0.0 5.74998 15.185 11.0438 -24.4129 -15.9536 63.0777 1.65351 -39.3178 0.59074 -33.1446 -2.25333 3.5261 -3.27599 25.1136 -8.54624 -0.0 0.0 -0.0 14.3555 27.4335 -28.6491 1.23696 26.7614 -54.6014 0.602756 16.6251 -0.0880682 1.97905 -0.0655136 0.244267 2.18312 -16.998 -20.7407 0.0 0.0 0.0 -28.3345 47.4926 14.7181 -7.88168 0.243375 1.18417 22.261 -20.8112 -3.39526 -12.8313 0.0 0.0 -0.0 0.0 -0.0 3.28524 10.7111 8.03481 -19.6671 -0.299451 -2.98843 11.745 3.18993 1.68989 22.8717 -0.0 -0.0 0.0 0.0 0.0 
458.630622694 711.0 -1301.28573431 22.9815291541 -60.3842919015 15.124718051 -3.99985 0.656493 1.73956 -3.99833 0.544488 1.77779 -3.97816 0.0298816 1.85904 -3.98284 0.323058 1.83101 -15.2444 18.8739 11.3256 -15.6894 29.5759 17.1358 -0.0 0.0 -0.0 6.03348 17.6582 11.4029 -28.0927 -14.6224 63.7307 1.53191 -37.191 0.51544 -35.0136 -2.43714 3.68002 -3.77209 26.7622 -10.3736 -0.0 0.0 -0.0 14.6888 27.1045 -29.4779 7.61413 27.0669 -56.7396 0.561921 15.5552 -0.0767503 4.22617 -0.129614 0.524132 2.16662 -12.0453 -19.0612 0.0 0.0 0.0 -32.3272 47.6916 16.8072 -5.39213 0.184154 0.806738 17.6168 -19.9791 -2.73475 -10.9315 0.0 0.0 -0.0 0.0 -0.0 2.4899 15.2193 6.96667 -15.1714 -0.321892 -2.29919 9.06135 6.5669 1.33465 19.1395 -0.0 -0.0 0.0 0.0 0.0 
